<svg width="1200" height="630" viewBox="0 0 1200 630" fill="none" xmlns="http://www.w3.org/2000/svg">
  <rect width="1200" height="630" fill="#F7F7F4"/>
  <path d="M930 0H1200V630H875L930 0Z" fill="#7C83FF"/>
  <path d="M68 0V584" stroke="#7C83FF" stroke-opacity="0.35" stroke-width="2"/>
  <path d="M980 0V630M1040 0V630M1100 0V630M1160 0V630M875 235H1200M875 285H1200M875 335H1200M875 385H1200M875 435H1200M875 485H1200M875 535H1200" stroke="#07111F" stroke-opacity="0.08"/>
  <rect x="72" y="58" width="250" height="28" fill="white" stroke="#07111F"/>
  <text x="86" y="77" font-family="monospace" font-size="12" letter-spacing="5" fill="#07111F">CSS USER EXPERIENCE</text>
  <path d="M72 164H102" stroke="#7C83FF" stroke-width="2"/>
  <text x="116" y="169" font-family="monospace" font-size="14" letter-spacing="7" fill="#6C63FF">TUTORIAL GUIDE</text>
  <text x="72" y="250" font-family="Arial Black, Impact, sans-serif" font-size="72" font-weight="900" fill="#7C83FF">:INVALID</text>
  <text x="72" y="337" font-family="Arial Black, Impact, sans-serif" font-size="76" font-weight="900" fill="#07111F">TO :USER-INVALID</text>
  <text x="72" y="455" font-family="monospace" font-size="11" letter-spacing="5" fill="#07111F">WRITTEN BY</text>
  <text x="72" y="482" font-family="Arial, sans-serif" font-size="22" font-weight="700" fill="#07111F">Adeleke Abdulganiy</text>
  <text x="980" y="76" font-family="monospace" font-size="12" letter-spacing="4" fill="#07111F">BETTER FORM UX</text>
</svg>
